<?xml version="1.0" standalone="no"?>
<!DOCTYPE svg PUBLIC "-//W3C//DTD SVG 20010904//EN"
 "http://www.w3.org/TR/2001/REC-SVG-20010904/DTD/svg10.dtd">
<svg version="1.0" xmlns="http://www.w3.org/2000/svg"
 width="640.000000pt" height="640.000000pt" viewBox="0 0 640.000000 640.000000"
 preserveAspectRatio="xMidYMid meet">

<g transform="translate(0.000000,640.000000) scale(0.100000,-0.100000)"
fill="#000000" stroke="none">
<path d="M0 3200 l0 -3200 3200 0 3200 0 0 3200 0 3200 -3200 0 -3200 0 0
-3200z m3370 2110 c196 -17 385 -57 525 -110 l28 -11 -21 -22 c-11 -12 -38
-58 -58 -102 -21 -44 -38 -81 -38 -82 -1 -1 -39 10 -86 23 -165 48 -309 67
-515 67 -329 1 -578 -57 -854 -198 -371 -189 -648 -470 -837 -847 -130 -260
-188 -513 -188 -828 0 -391 100 -726 310 -1041 255 -382 655 -667 1091 -778
296 -75 650 -75 946 0 436 111 836 396 1091 778 110 166 208 383 255 568 75
296 75 650 0 946 -43 171 -138 386 -237 542 l-39 60 84 83 c46 45 88 80 93 77
18 -11 149 -232 190 -320 92 -197 157 -411 186 -612 23 -159 23 -447 0 -606
-51 -354 -195 -694 -418 -990 -77 -103 -277 -303 -385 -385 -291 -221 -636
-367 -990 -418 -159 -23 -447 -23 -606 0 -354 51 -699 197 -990 418 -108 82
-308 282 -385 385 -223 296 -367 636 -418 990 -23 159 -23 447 0 606 51 354
197 699 418 990 82 108 282 308 385 385 429 324 948 477 1463 432z m1094 -100
c225 -37 382 -251 347 -471 -45 -280 -338 -433 -595 -311 -158 75 -254 260
-227 433 32 198 194 342 401 358 8 0 41 -3 74 -9z m-1020 -822 c448 -88 818
-440 932 -887 84 -329 24 -686 -161 -968 -75 -114 -234 -273 -348 -348 -401
-264 -933 -264 -1334 0 -114 75 -273 234 -348 348 -264 401 -264 933 0 1334
75 114 234 273 348 348 268 176 588 237 911 173z"/>
</g>
</svg>
