<?xml version="1.0" standalone="no"?>
<!DOCTYPE svg PUBLIC "-//W3C//DTD SVG 20010904//EN"
 "http://www.w3.org/TR/2001/REC-SVG-20010904/DTD/svg10.dtd">
<svg version="1.0" xmlns="http://www.w3.org/2000/svg"
 width="512.000000pt" height="512.000000pt" viewBox="0 0 512.000000 512.000000"
 preserveAspectRatio="xMidYMid meet">

<g transform="translate(0.000000,512.000000) scale(0.100000,-0.100000)"
fill="#000000" stroke="none">
<path d="M393 5106 c-186 -45 -348 -215 -382 -400 -16 -85 -15 -4224 0 -4298
40 -192 212 -361 404 -398 44 -8 634 -10 2180 -8 l2120 3 58 22 c152 57 263
168 320 320 l22 58 3 2120 c2 1546 0 2136 -8 2180 -37 192 -206 364 -398 404
-81 17 -4248 14 -4319 -3z m532 -1566 l0 -65 -122 -3 -123 -3 0 -914 0 -915
125 0 125 0 0 -65 0 -65 -205 0 -205 0 0 1050 0 1050 203 -2 202 -3 0 -65z
m3683 -982 l2 -1048 -205 0 -205 0 0 65 0 65 125 0 125 0 0 915 0 915 -125 0
-125 0 0 70 0 70 203 -2 202 -3 3 -1047z m-1646 948 c168 -32 295 -101 420
-226 74 -75 93 -101 136 -191 63 -131 83 -218 83 -368 -1 -476 -371 -813 -866
-788 -131 7 -211 26 -325 78 -168 78 -285 192 -365 354 -57 115 -75 184 -82
315 -7 130 7 226 50 339 93 246 309 428 577 485 86 19 280 20 372 2z m-1622
-256 l0 -130 180 0 180 0 0 -65 0 -65 -177 -2 -178 -3 0 -390 0 -390 25 -45
c33 -60 92 -90 175 -90 65 1 125 18 155 45 18 17 20 15 46 -38 27 -55 27 -57
10 -76 -45 -50 -205 -82 -310 -62 -148 27 -231 114 -256 262 -6 39 -10 286
-10 622 l0 557 80 0 80 0 0 -130z m2657 -1112 c62 -58 38 -172 -43 -198 -81
-27 -154 28 -154 117 0 102 121 153 197 81z"/>
<path d="M2689 3370 c-264 -33 -475 -215 -545 -471 -21 -78 -24 -250 -5 -329
56 -235 248 -422 487 -476 110 -24 282 -16 382 19 195 67 330 204 398 402 24
69 28 96 28 200 1 142 -11 200 -67 315 -115 238 -390 376 -678 340z"/>
</g>
</svg>
